<mxfile host="app.diagrams.net" agent="Mozilla/5.0 (Windows NT 10.0; Win64; x64) AppleWebKit/537.36 (KHTML, like Gecko) Chrome/135.0.0.0 Safari/537.36" version="26.2.14">
  <diagram name="StrÃ¡nka-1" id="ap9F0tJDVBkx1FUu4hTe">
    <mxGraphModel dx="1426" dy="743" grid="1" gridSize="10" guides="1" tooltips="1" connect="1" arrows="1" fold="1" page="1" pageScale="1" pageWidth="827" pageHeight="1169" math="0" shadow="0">
      <root>
        <mxCell id="0" />
        <mxCell id="1" parent="0" />
        <mxCell id="FeV5EkLKyiaalTHIH3gV-1" value="Slime" style="swimlane;fontStyle=1;align=center;verticalAlign=top;childLayout=stackLayout;horizontal=1;startSize=26;horizontalStack=0;resizeParent=1;resizeParentMax=0;resizeLast=0;collapsible=1;marginBottom=0;whiteSpace=wrap;html=1;" vertex="1" parent="1">
          <mxGeometry x="334" y="50" width="156" height="270" as="geometry" />
        </mxCell>
        <mxCell id="FeV5EkLKyiaalTHIH3gV-2" value="&lt;div&gt;+ x: int&lt;/div&gt;&lt;div&gt;+ y: int&lt;span style=&quot;white-space: pre;&quot;&gt;&#x9;&lt;/span&gt;&lt;/div&gt;+ vel_y: int&lt;div&gt;+ is_jumping: boolean&lt;/div&gt;&lt;div&gt;+ is_ducking: boolean&lt;/div&gt;&lt;div&gt;+ current_frame: int&lt;/div&gt;&lt;div&gt;+ animation_count: int&lt;/div&gt;&lt;div&gt;+ dead: boolean&lt;/div&gt;" style="text;strokeColor=none;fillColor=none;align=left;verticalAlign=top;spacingLeft=4;spacingRight=4;overflow=hidden;rotatable=0;points=[[0,0.5],[1,0.5]];portConstraint=eastwest;whiteSpace=wrap;html=1;" vertex="1" parent="FeV5EkLKyiaalTHIH3gV-1">
          <mxGeometry y="26" width="156" height="124" as="geometry" />
        </mxCell>
        <mxCell id="FeV5EkLKyiaalTHIH3gV-3" value="" style="line;strokeWidth=1;fillColor=none;align=left;verticalAlign=middle;spacingTop=-1;spacingLeft=3;spacingRight=3;rotatable=0;labelPosition=right;points=[];portConstraint=eastwest;strokeColor=inherit;" vertex="1" parent="FeV5EkLKyiaalTHIH3gV-1">
          <mxGeometry y="150" width="156" height="20" as="geometry" />
        </mxCell>
        <mxCell id="FeV5EkLKyiaalTHIH3gV-4" value="+update()&lt;div&gt;+jump()&lt;/div&gt;&lt;div&gt;+duck()&lt;/div&gt;&lt;div&gt;+draw()&lt;/div&gt;&lt;div&gt;+get_mask()&lt;/div&gt;&lt;div&gt;+get_rect()&lt;/div&gt;" style="text;strokeColor=none;fillColor=none;align=left;verticalAlign=top;spacingLeft=4;spacingRight=4;overflow=hidden;rotatable=0;points=[[0,0.5],[1,0.5]];portConstraint=eastwest;whiteSpace=wrap;html=1;" vertex="1" parent="FeV5EkLKyiaalTHIH3gV-1">
          <mxGeometry y="170" width="156" height="100" as="geometry" />
        </mxCell>
        <mxCell id="FeV5EkLKyiaalTHIH3gV-20" value="Spike" style="swimlane;fontStyle=1;align=center;verticalAlign=top;childLayout=stackLayout;horizontal=1;startSize=26;horizontalStack=0;resizeParent=1;resizeParentMax=0;resizeLast=0;collapsible=1;marginBottom=0;whiteSpace=wrap;html=1;" vertex="1" parent="1">
          <mxGeometry x="20" y="60" width="160" height="160" as="geometry" />
        </mxCell>
        <mxCell id="FeV5EkLKyiaalTHIH3gV-21" value="+ x: int&lt;div&gt;+ y: int&lt;/div&gt;&lt;div&gt;+ width: int&lt;/div&gt;&lt;div&gt;+ height: int&amp;nbsp;&lt;/div&gt;" style="text;strokeColor=none;fillColor=none;align=left;verticalAlign=top;spacingLeft=4;spacingRight=4;overflow=hidden;rotatable=0;points=[[0,0.5],[1,0.5]];portConstraint=eastwest;whiteSpace=wrap;html=1;" vertex="1" parent="FeV5EkLKyiaalTHIH3gV-20">
          <mxGeometry y="26" width="160" height="64" as="geometry" />
        </mxCell>
        <mxCell id="FeV5EkLKyiaalTHIH3gV-22" value="" style="line;strokeWidth=1;fillColor=none;align=left;verticalAlign=middle;spacingTop=-1;spacingLeft=3;spacingRight=3;rotatable=0;labelPosition=right;points=[];portConstraint=eastwest;strokeColor=inherit;" vertex="1" parent="FeV5EkLKyiaalTHIH3gV-20">
          <mxGeometry y="90" width="160" height="8" as="geometry" />
        </mxCell>
        <mxCell id="FeV5EkLKyiaalTHIH3gV-23" value="+ update()&lt;div&gt;+ draw()&lt;/div&gt;&lt;div&gt;+collide()&lt;/div&gt;" style="text;strokeColor=none;fillColor=none;align=left;verticalAlign=top;spacingLeft=4;spacingRight=4;overflow=hidden;rotatable=0;points=[[0,0.5],[1,0.5]];portConstraint=eastwest;whiteSpace=wrap;html=1;" vertex="1" parent="FeV5EkLKyiaalTHIH3gV-20">
          <mxGeometry y="98" width="160" height="62" as="geometry" />
        </mxCell>
        <mxCell id="FeV5EkLKyiaalTHIH3gV-24" value="Fireball" style="swimlane;fontStyle=1;align=center;verticalAlign=top;childLayout=stackLayout;horizontal=1;startSize=26;horizontalStack=0;resizeParent=1;resizeParentMax=0;resizeLast=0;collapsible=1;marginBottom=0;whiteSpace=wrap;html=1;" vertex="1" parent="1">
          <mxGeometry x="640" y="60" width="160" height="154" as="geometry" />
        </mxCell>
        <mxCell id="FeV5EkLKyiaalTHIH3gV-25" value="+ x: int&lt;div&gt;+ y: int&lt;/div&gt;&lt;div&gt;+ current_frame: int&lt;/div&gt;&lt;div&gt;+ animation_count: int&lt;/div&gt;&lt;div&gt;+ width: int&lt;/div&gt;&lt;div&gt;+ height: int&lt;/div&gt;" style="text;strokeColor=none;fillColor=none;align=left;verticalAlign=top;spacingLeft=4;spacingRight=4;overflow=hidden;rotatable=0;points=[[0,0.5],[1,0.5]];portConstraint=eastwest;whiteSpace=wrap;html=1;" vertex="1" parent="FeV5EkLKyiaalTHIH3gV-24">
          <mxGeometry y="26" width="160" height="94" as="geometry" />
        </mxCell>
        <mxCell id="FeV5EkLKyiaalTHIH3gV-26" value="" style="line;strokeWidth=1;fillColor=none;align=left;verticalAlign=middle;spacingTop=-1;spacingLeft=3;spacingRight=3;rotatable=0;labelPosition=right;points=[];portConstraint=eastwest;strokeColor=inherit;" vertex="1" parent="FeV5EkLKyiaalTHIH3gV-24">
          <mxGeometry y="120" width="160" height="8" as="geometry" />
        </mxCell>
        <mxCell id="FeV5EkLKyiaalTHIH3gV-27" value="+ method(type): type" style="text;strokeColor=none;fillColor=none;align=left;verticalAlign=top;spacingLeft=4;spacingRight=4;overflow=hidden;rotatable=0;points=[[0,0.5],[1,0.5]];portConstraint=eastwest;whiteSpace=wrap;html=1;" vertex="1" parent="FeV5EkLKyiaalTHIH3gV-24">
          <mxGeometry y="128" width="160" height="26" as="geometry" />
        </mxCell>
        <mxCell id="FeV5EkLKyiaalTHIH3gV-28" value="Cloud" style="swimlane;fontStyle=1;align=center;verticalAlign=top;childLayout=stackLayout;horizontal=1;startSize=26;horizontalStack=0;resizeParent=1;resizeParentMax=0;resizeLast=0;collapsible=1;marginBottom=0;whiteSpace=wrap;html=1;" vertex="1" parent="1">
          <mxGeometry x="50" y="390" width="160" height="160" as="geometry" />
        </mxCell>
        <mxCell id="FeV5EkLKyiaalTHIH3gV-29" value="+ x: int&lt;div&gt;+ y: int&lt;/div&gt;&lt;div&gt;+ speed: float&lt;/div&gt;&lt;div&gt;+ width: int&lt;/div&gt;&lt;div&gt;+ height: int&lt;/div&gt;" style="text;strokeColor=none;fillColor=none;align=left;verticalAlign=top;spacingLeft=4;spacingRight=4;overflow=hidden;rotatable=0;points=[[0,0.5],[1,0.5]];portConstraint=eastwest;whiteSpace=wrap;html=1;" vertex="1" parent="FeV5EkLKyiaalTHIH3gV-28">
          <mxGeometry y="26" width="160" height="84" as="geometry" />
        </mxCell>
        <mxCell id="FeV5EkLKyiaalTHIH3gV-30" value="" style="line;strokeWidth=1;fillColor=none;align=left;verticalAlign=middle;spacingTop=-1;spacingLeft=3;spacingRight=3;rotatable=0;labelPosition=right;points=[];portConstraint=eastwest;strokeColor=inherit;" vertex="1" parent="FeV5EkLKyiaalTHIH3gV-28">
          <mxGeometry y="110" width="160" height="8" as="geometry" />
        </mxCell>
        <mxCell id="FeV5EkLKyiaalTHIH3gV-31" value="+ update()&lt;div&gt;+ draw()&lt;/div&gt;" style="text;strokeColor=none;fillColor=none;align=left;verticalAlign=top;spacingLeft=4;spacingRight=4;overflow=hidden;rotatable=0;points=[[0,0.5],[1,0.5]];portConstraint=eastwest;whiteSpace=wrap;html=1;" vertex="1" parent="FeV5EkLKyiaalTHIH3gV-28">
          <mxGeometry y="118" width="160" height="42" as="geometry" />
        </mxCell>
        <mxCell id="FeV5EkLKyiaalTHIH3gV-32" value="Ground" style="swimlane;fontStyle=1;align=center;verticalAlign=top;childLayout=stackLayout;horizontal=1;startSize=26;horizontalStack=0;resizeParent=1;resizeParentMax=0;resizeLast=0;collapsible=1;marginBottom=0;whiteSpace=wrap;html=1;" vertex="1" parent="1">
          <mxGeometry x="620" y="390" width="160" height="140" as="geometry" />
        </mxCell>
        <mxCell id="FeV5EkLKyiaalTHIH3gV-33" value="+ x: int&lt;div&gt;+width: int&lt;/div&gt;&lt;div&gt;+ height: int&lt;/div&gt;&lt;div&gt;+ tiles: list&lt;/div&gt;" style="text;strokeColor=none;fillColor=none;align=left;verticalAlign=top;spacingLeft=4;spacingRight=4;overflow=hidden;rotatable=0;points=[[0,0.5],[1,0.5]];portConstraint=eastwest;whiteSpace=wrap;html=1;" vertex="1" parent="FeV5EkLKyiaalTHIH3gV-32">
          <mxGeometry y="26" width="160" height="64" as="geometry" />
        </mxCell>
        <mxCell id="FeV5EkLKyiaalTHIH3gV-34" value="" style="line;strokeWidth=1;fillColor=none;align=left;verticalAlign=middle;spacingTop=-1;spacingLeft=3;spacingRight=3;rotatable=0;labelPosition=right;points=[];portConstraint=eastwest;strokeColor=inherit;" vertex="1" parent="FeV5EkLKyiaalTHIH3gV-32">
          <mxGeometry y="90" width="160" height="8" as="geometry" />
        </mxCell>
        <mxCell id="FeV5EkLKyiaalTHIH3gV-35" value="+ update()&lt;div&gt;+ draw()&lt;/div&gt;" style="text;strokeColor=none;fillColor=none;align=left;verticalAlign=top;spacingLeft=4;spacingRight=4;overflow=hidden;rotatable=0;points=[[0,0.5],[1,0.5]];portConstraint=eastwest;whiteSpace=wrap;html=1;" vertex="1" parent="FeV5EkLKyiaalTHIH3gV-32">
          <mxGeometry y="98" width="160" height="42" as="geometry" />
        </mxCell>
      </root>
    </mxGraphModel>
  </diagram>
</mxfile>
